<svg width="302" height="232" viewBox="0 0 302 232" fill="none" xmlns="http://www.w3.org/2000/svg">
<path d="M213.673 64.2878C213.507 63.4944 213.334 62.837 213.232 62.497C212.513 60.1092 210.495 57.9898 207.279 56.0743C206.936 55.874 206.582 55.6738 206.217 55.4773C204.257 54.458 202.403 53.2456 200.682 51.858C199.73 51.0809 198.858 50.2101 198.08 49.2587L197.703 48.7902C197.443 48.435 197.21 48.0837 197.003 47.7399L196.965 47.6757L196.875 47.5245L196.826 47.4376L196.758 47.3167L196.679 47.1656C196.406 46.6533 196.171 46.1217 195.975 45.575C195.975 45.5448 195.952 45.5146 195.945 45.4882C195.746 44.925 195.584 44.3495 195.459 43.7654L195.436 43.6785C195.293 43.0211 195.192 42.3977 195.086 41.7894C194.819 40.2782 194.533 38.9672 193.497 37.932L193.313 37.7507L193.136 37.5656L192.963 37.3804L192.793 37.1953C192.737 37.1349 192.684 37.0744 192.631 37.0102L192.469 36.8288L192.281 36.5984L192.187 36.485C192.066 36.3301 191.95 36.179 191.844 36.0241C191.661 35.774 191.491 35.5142 191.336 35.2458L191.212 35.0191C190.489 33.6062 190.368 32.212 191.166 30.7877C191.653 29.9319 192.069 29.0373 192.409 28.1129C192.624 27.5299 192.804 26.9344 192.947 26.3296C194.559 19.5291 190.658 14.4741 188.741 12.4906C188.459 12.1997 188.222 11.9768 188.049 11.8218C187.634 11.4516 187.199 11.0864 186.742 10.7262C178.533 4.23173 164.104 -0.0790405 151.203 0.737021C150.499 0.778579 149.806 0.839028 149.117 0.918367C147.558 1.08124 146.009 1.33353 144.478 1.67398C143.429 1.90567 142.392 2.19065 141.372 2.52782C140.735 2.73561 140.106 2.95852 139.489 3.20032C138.58 3.55846 137.69 3.96325 136.823 4.41307C136.601 4.52642 136.386 4.64731 136.164 4.79088C134.756 5.57813 133.434 6.51001 132.218 7.57153C130.32 9.25693 128.123 10.5693 125.741 11.4403C113.552 15.7586 101.589 5.22536 90.6319 14.7423C81.0977 23.0314 93.8438 27.9428 81.8545 35.3894C69.3042 43.1684 65.1998 52.3378 64.7254 60.4719V60.5059C64.6123 62.625 64.7234 64.75 65.0568 66.8455C65.6321 70.3724 66.7074 73.7985 68.2499 77.0199C68.4201 80.249 69.6719 83.3259 71.8025 85.7522C73.9331 88.1785 76.8176 89.8121 79.9889 90.3883C83.1603 90.9645 86.4326 90.4497 89.2759 88.9271C92.1192 87.4046 94.3669 84.9635 95.655 81.9993C102.158 81.9993 109.587 82.022 117.423 82.0258H155.545C181.666 82.0258 204.587 82.0258 208.134 82.0258C208.191 81.9533 208.253 81.8839 208.318 81.818C210.956 78.9439 212.798 75.4271 213.661 71.6172C213.91 70.4912 214.064 69.3462 214.121 68.1943V68.1527C214.118 66.8515 213.968 65.5548 213.673 64.2878Z" fill="#FFEFB0"/>
<path d="M155.639 22.0302C155.839 22.0302 156.03 21.9506 156.172 21.8089C156.313 21.6672 156.392 21.475 156.392 21.2746V14.8519C156.392 14.649 156.312 14.4544 156.169 14.3109C156.026 14.1674 155.832 14.0868 155.63 14.0868C155.427 14.0868 155.233 14.1674 155.09 14.3109C154.947 14.4544 154.867 14.649 154.867 14.8519V21.2746C154.867 21.3754 154.887 21.4752 154.926 21.5681C154.965 21.6611 155.022 21.7452 155.094 21.8156C155.166 21.8861 155.252 21.9413 155.345 21.9782C155.439 22.015 155.539 22.0327 155.639 22.0302Z" fill="#F8CB76"/>
<path d="M148.334 22.3286C148.377 22.491 148.472 22.6344 148.605 22.7364C148.738 22.8383 148.901 22.8929 149.068 22.8916C149.136 22.8902 149.203 22.8813 149.268 22.8651C149.365 22.8402 149.457 22.7959 149.537 22.735C149.617 22.6741 149.684 22.5978 149.734 22.5105C149.784 22.4232 149.816 22.3267 149.829 22.2267C149.841 22.1267 149.834 22.0252 149.806 21.9282L148.153 15.7321C148.103 15.5363 147.978 15.3683 147.805 15.2652C147.631 15.1621 147.424 15.1323 147.229 15.1824C147.034 15.2325 146.866 15.3584 146.763 15.5323C146.661 15.7063 146.631 15.9141 146.681 16.11L148.334 22.3286Z" fill="#F8CB76"/>
<path d="M142.287 25.0602C142.354 25.1766 142.45 25.273 142.567 25.3394C142.683 25.4058 142.815 25.4399 142.949 25.438C143.082 25.4365 143.211 25.4014 143.326 25.336C143.414 25.2866 143.491 25.2201 143.553 25.1404C143.614 25.0607 143.66 24.9693 143.686 24.8717C143.711 24.7742 143.718 24.6724 143.704 24.5724C143.69 24.4724 143.656 24.3762 143.605 24.2894L140.411 18.7357C140.312 18.5599 140.146 18.431 139.952 18.3775C139.757 18.324 139.549 18.3503 139.374 18.4505C139.199 18.5507 139.07 18.7166 139.017 18.9118C138.964 19.107 138.99 19.3155 139.09 19.4913L142.287 25.0602Z" fill="#F8CB76"/>
<path d="M137.151 29.2652C137.222 29.3371 137.306 29.3943 137.399 29.4335C137.492 29.4728 137.592 29.4932 137.693 29.4937C137.793 29.4943 137.893 29.4748 137.987 29.4366C138.08 29.3984 138.165 29.342 138.237 29.2708C138.309 29.1996 138.366 29.115 138.405 29.0217C138.444 28.9283 138.464 28.8282 138.465 28.727C138.465 28.6258 138.446 28.5255 138.408 28.4318C138.37 28.3381 138.314 28.2528 138.243 28.1809L133.724 23.6472C133.653 23.5762 133.569 23.52 133.477 23.4816C133.385 23.4432 133.286 23.4234 133.186 23.4234C133.086 23.4234 132.987 23.4432 132.894 23.4816C132.802 23.52 132.718 23.5762 132.647 23.6472C132.576 23.7181 132.52 23.8024 132.482 23.8951C132.444 23.9878 132.424 24.0871 132.424 24.1874C132.424 24.2878 132.444 24.3871 132.482 24.4798C132.52 24.5725 132.576 24.6568 132.647 24.7277L137.151 29.2652Z" fill="#F8CB76"/>
<path d="M127.741 31.4564L133.276 34.6602C133.39 34.7281 133.52 34.7646 133.652 34.766C133.824 34.774 133.994 34.7226 134.133 34.6204C134.271 34.5182 134.371 34.3714 134.415 34.2045C134.459 34.0375 134.445 33.8604 134.375 33.7027C134.304 33.5451 134.182 33.4163 134.029 33.3379L128.494 30.1303C128.407 30.0807 128.311 30.0487 128.212 30.0362C128.113 30.0237 128.012 30.0309 127.916 30.0574C127.82 30.0839 127.73 30.1291 127.651 30.1906C127.572 30.2521 127.506 30.3285 127.456 30.4156C127.407 30.5026 127.375 30.5986 127.363 30.6981C127.35 30.7975 127.357 30.8984 127.384 30.9951C127.41 31.0917 127.455 31.1822 127.516 31.2614C127.578 31.3405 127.654 31.4068 127.741 31.4564Z" fill="#F8CB76"/>
<path d="M124.747 39.2204L130.922 40.8827C130.988 40.8989 131.055 40.9078 131.122 40.9091C131.322 40.9352 131.524 40.8806 131.683 40.7573C131.843 40.634 131.947 40.4522 131.973 40.2518C131.999 40.0514 131.945 39.8488 131.822 39.6887C131.699 39.5286 131.518 39.424 131.318 39.3979L125.142 37.7394C124.947 37.6893 124.74 37.719 124.567 37.8221C124.393 37.9252 124.268 38.0932 124.218 38.2891C124.168 38.485 124.198 38.6927 124.301 38.8667C124.403 39.0406 124.571 39.1665 124.766 39.2166L124.747 39.2204Z" fill="#F8CB76"/>
<path d="M131.017 46.7349C131.017 46.5345 130.937 46.3423 130.796 46.2006C130.655 46.0589 130.463 45.9793 130.264 45.9793H123.862C123.662 45.9793 123.471 46.0589 123.33 46.2006C123.188 46.3423 123.109 46.5345 123.109 46.7349C123.109 46.9353 123.188 47.1275 123.33 47.2692C123.471 47.4109 123.662 47.4905 123.862 47.4905H130.264C130.463 47.4905 130.655 47.4109 130.796 47.2692C130.937 47.1275 131.017 46.9353 131.017 46.7349Z" fill="#F8CB76"/>
<path d="M131.841 53.1161C131.816 53.0184 131.772 52.9267 131.712 52.8465C131.651 52.7662 131.575 52.6989 131.488 52.6485C131.401 52.5982 131.305 52.5658 131.205 52.5533C131.105 52.5408 131.004 52.5485 130.907 52.5758L124.732 54.2381C124.532 54.2647 124.351 54.3698 124.229 54.5302C124.106 54.6907 124.052 54.8935 124.079 55.0939C124.105 55.2943 124.21 55.4759 124.37 55.5988C124.53 55.7218 124.732 55.7759 124.932 55.7494C124.998 55.748 125.063 55.7391 125.127 55.7229L131.303 54.0606C131.401 54.0357 131.493 53.9912 131.574 53.9298C131.654 53.8684 131.722 53.7913 131.772 53.7031C131.822 53.615 131.854 53.5175 131.866 53.4167C131.878 53.3158 131.87 53.2136 131.841 53.1161Z" fill="#F8CB76"/>
<path d="M134.319 59.0854C134.27 58.9973 134.203 58.92 134.124 58.858C134.045 58.796 133.953 58.7507 133.856 58.7246C133.759 58.6986 133.658 58.6923 133.558 58.7063C133.458 58.7202 133.362 58.7541 133.276 58.8058L127.741 62.0134C127.587 62.0918 127.465 62.2205 127.395 62.3782C127.325 62.5359 127.31 62.713 127.354 62.8799C127.398 63.0469 127.498 63.1937 127.637 63.2959C127.776 63.3981 127.945 63.4495 128.117 63.4415C128.249 63.4401 128.379 63.405 128.494 63.3395L134.029 60.1319C134.118 60.0835 134.196 60.0177 134.259 59.9384C134.322 59.8591 134.368 59.768 134.395 59.6703C134.422 59.5727 134.429 59.4706 134.416 59.3701C134.403 59.2696 134.37 59.1728 134.319 59.0854Z" fill="#F8CB76"/>
<path d="M137.151 64.2047L132.632 68.7383C132.56 68.8087 132.503 68.8928 132.464 68.9855C132.425 69.0783 132.405 69.1779 132.405 69.2786C132.405 69.3793 132.425 69.4789 132.464 69.5717C132.503 69.6645 132.56 69.7485 132.632 69.8189C132.702 69.8908 132.786 69.948 132.878 69.9871C132.971 70.0261 133.07 70.0462 133.17 70.0462C133.271 70.0462 133.37 70.0261 133.463 69.9871C133.555 69.948 133.639 69.8908 133.709 69.8189L138.227 65.2852C138.37 65.1414 138.45 64.9466 138.45 64.7436C138.45 64.5406 138.369 64.3461 138.226 64.2028C138.082 64.0595 137.888 63.9792 137.686 63.9795C137.483 63.9799 137.29 64.0609 137.147 64.2047H137.151Z" fill="#F8CB76"/>
<path d="M143.33 68.1301C143.243 68.0783 143.147 68.0445 143.048 68.0305C142.948 68.0166 142.847 68.0228 142.749 68.0489C142.652 68.0749 142.561 68.1203 142.482 68.1823C142.402 68.2442 142.336 68.3215 142.287 68.4096L139.09 73.9634C139.035 74.0511 138.999 74.149 138.984 74.2512C138.969 74.3534 138.975 74.4576 139.001 74.5575C139.027 74.6573 139.074 74.7507 139.138 74.8317C139.202 74.9128 139.281 74.9799 139.372 75.0288C139.458 75.08 139.554 75.1133 139.653 75.127C139.753 75.1406 139.854 75.1342 139.95 75.1081C140.047 75.0821 140.138 75.0369 140.217 74.9753C140.296 74.9137 140.362 74.8368 140.411 74.7492L143.608 69.1917C143.662 69.1044 143.698 69.007 143.713 68.9053C143.729 68.8037 143.723 68.7001 143.697 68.6007C143.671 68.5013 143.625 68.4083 143.562 68.3274C143.498 68.2465 143.42 68.1794 143.33 68.1301Z" fill="#F8CB76"/>
<path d="M149.268 70.5972C149.171 70.5698 149.07 70.5622 148.97 70.5747C148.871 70.5872 148.775 70.6195 148.688 70.6699C148.6 70.7202 148.524 70.7875 148.464 70.8678C148.403 70.9481 148.359 71.0398 148.334 71.1374L146.681 77.3334C146.654 77.4304 146.646 77.5319 146.659 77.6319C146.671 77.7319 146.703 77.8284 146.753 77.9157C146.804 78.003 146.871 78.0794 146.951 78.1403C147.031 78.2012 147.122 78.2454 147.219 78.2704C147.283 78.2884 147.349 78.2973 147.415 78.2968C147.586 78.3023 147.754 78.2491 147.891 78.1461C148.028 78.0431 148.126 77.8964 148.168 77.7301L149.821 71.5341C149.848 71.4361 149.855 71.3336 149.842 71.2328C149.829 71.132 149.795 71.0349 149.743 70.9474C149.692 70.8599 149.623 70.7838 149.541 70.7236C149.46 70.6634 149.367 70.6204 149.268 70.5972Z" fill="#F8CB76"/>
<path d="M155.639 71.4397C155.439 71.4397 155.248 71.5193 155.107 71.661C154.965 71.8027 154.886 71.9949 154.886 72.1953V78.618C154.886 78.8209 154.966 79.0155 155.109 79.159C155.252 79.3024 155.446 79.383 155.648 79.383C155.851 79.383 156.045 79.3024 156.188 79.159C156.331 79.0155 156.411 78.8209 156.411 78.618V72.1953C156.411 72.0944 156.391 71.9946 156.352 71.9017C156.313 71.8088 156.256 71.7246 156.184 71.6542C156.112 71.5838 156.027 71.5285 155.933 71.4917C155.84 71.4548 155.74 71.4371 155.639 71.4397Z" fill="#F8CB76"/>
<path d="M162.948 71.1374C162.922 71.0404 162.877 70.9495 162.816 70.8699C162.755 70.7902 162.679 70.7234 162.592 70.6732C162.506 70.6231 162.41 70.5905 162.311 70.5775C162.212 70.5644 162.111 70.5711 162.014 70.5972C161.917 70.6232 161.827 70.6681 161.747 70.7293C161.668 70.7905 161.601 70.8667 161.551 70.9537C161.501 71.0407 161.469 71.1368 161.456 71.2364C161.443 71.3359 161.45 71.4371 161.476 71.5341L163.129 77.7301C163.171 77.8964 163.269 78.0431 163.406 78.1461C163.543 78.2491 163.711 78.3023 163.882 78.2968C163.948 78.2973 164.014 78.2884 164.078 78.2704C164.173 78.2438 164.263 78.1984 164.342 78.1368C164.42 78.0752 164.485 77.9986 164.534 77.9115C164.583 77.8243 164.614 77.7284 164.625 77.6292C164.637 77.53 164.628 77.4294 164.601 77.3334L162.948 71.1374Z" fill="#F8CB76"/>
<path d="M168.995 68.4097C168.895 68.2338 168.73 68.105 168.535 68.0515C168.341 67.998 168.133 68.0242 167.958 68.1244C167.783 68.2246 167.654 68.3906 167.601 68.5858C167.548 68.781 167.574 68.9894 167.674 69.1653L170.87 74.7228C170.937 74.8387 171.033 74.9347 171.149 75.0011C171.265 75.0674 171.396 75.1018 171.529 75.1006C171.662 75.1018 171.793 75.0677 171.908 75.0019C172.024 74.9361 172.12 74.8408 172.187 74.7257C172.254 74.6107 172.289 74.4799 172.289 74.3467C172.29 74.2135 172.255 74.0825 172.188 73.9672L168.995 68.4097Z" fill="#F8CB76"/>
<path d="M174.128 64.2047C173.985 64.0614 173.791 63.9809 173.589 63.9809C173.387 63.9809 173.193 64.0614 173.051 64.2047C172.908 64.348 172.828 64.5423 172.828 64.7449C172.828 64.9476 172.908 65.1419 173.051 65.2852L177.569 69.8189C177.639 69.8908 177.723 69.948 177.816 69.9871C177.908 70.0261 178.007 70.0462 178.108 70.0462C178.208 70.0462 178.307 70.0261 178.4 69.9871C178.492 69.948 178.576 69.8908 178.646 69.8189C178.718 69.7485 178.775 69.6645 178.814 69.5717C178.853 69.4789 178.873 69.3793 178.873 69.2786C178.873 69.1779 178.853 69.0783 178.814 68.9855C178.775 68.8928 178.718 68.8087 178.646 68.7383L174.128 64.2047Z" fill="#F8CB76"/>
<path d="M183.541 62.0134L178.006 58.8058C177.919 58.7562 177.824 58.7242 177.724 58.7117C177.625 58.6992 177.525 58.7064 177.428 58.7329C177.332 58.7594 177.242 58.8046 177.163 58.8661C177.084 58.9275 177.018 59.004 176.969 59.0911C176.919 59.1781 176.887 59.2741 176.875 59.3736C176.862 59.473 176.87 59.5739 176.896 59.6706C176.922 59.7672 176.967 59.8577 177.029 59.9369C177.09 60.016 177.166 60.0823 177.253 60.1319L182.792 63.3395C182.907 63.405 183.036 63.4401 183.168 63.4415C183.302 63.4427 183.433 63.4083 183.549 63.342C183.665 63.2756 183.761 63.1796 183.827 63.0637C183.879 62.9764 183.913 62.8794 183.927 62.7787C183.94 62.678 183.934 62.5755 183.907 62.4775C183.88 62.3794 183.834 62.2878 183.771 62.208C183.708 62.1283 183.63 62.0621 183.541 62.0134Z" fill="#F8CB76"/>
<path d="M186.535 54.2495L180.359 52.5871C180.164 52.5345 179.956 52.5619 179.781 52.6632C179.606 52.7645 179.478 52.9315 179.426 53.1274C179.373 53.3233 179.4 53.5321 179.501 53.7078C179.602 53.8835 179.769 54.0117 179.964 54.0643L186.139 55.7267C186.203 55.7429 186.269 55.7518 186.335 55.7531C186.507 55.7584 186.675 55.7047 186.812 55.6009C186.949 55.4972 187.046 55.3496 187.088 55.1827C187.115 55.0849 187.121 54.9828 187.108 54.8824C187.094 54.782 187.06 54.6854 187.009 54.5984C186.957 54.5113 186.888 54.4356 186.807 54.3756C186.726 54.3157 186.633 54.2728 186.535 54.2495Z" fill="#F8CB76"/>
<path d="M187.42 45.968H181.018C180.819 45.968 180.627 46.0476 180.486 46.1893C180.345 46.331 180.265 46.5232 180.265 46.7236C180.265 46.924 180.345 47.1162 180.486 47.2579C180.627 47.3996 180.819 47.4792 181.018 47.4792H187.42C187.619 47.4792 187.811 47.3996 187.952 47.2579C188.093 47.1162 188.173 46.924 188.173 46.7236C188.173 46.5232 188.093 46.331 187.952 46.1893C187.811 46.0476 187.619 45.968 187.42 45.968Z" fill="#F8CB76"/>
<path d="M179.426 40.3386C179.467 40.5024 179.562 40.6476 179.695 40.751C179.828 40.8544 179.992 40.9101 180.16 40.9091C180.227 40.9075 180.294 40.8987 180.359 40.8827L186.535 39.2203C186.631 39.1955 186.722 39.1519 186.802 39.0918C186.882 39.0318 186.949 38.9566 187 38.8704C187.051 38.7843 187.085 38.689 187.099 38.5899C187.113 38.4908 187.107 38.3898 187.083 38.2928C187.058 38.1958 187.014 38.1047 186.955 38.0246C186.895 37.9444 186.82 37.8769 186.734 37.8259C186.648 37.7748 186.553 37.7413 186.454 37.7271C186.356 37.7129 186.255 37.7183 186.158 37.7431L179.983 39.4017C179.884 39.4245 179.791 39.4673 179.708 39.5273C179.626 39.5873 179.557 39.6633 179.505 39.7509C179.453 39.8384 179.419 39.9356 179.405 40.0366C179.392 40.1376 179.399 40.2404 179.426 40.3386Z" fill="#F8CB76"/>
<path d="M176.963 34.3807C177.03 34.4971 177.127 34.5935 177.243 34.6599C177.36 34.7263 177.492 34.7603 177.626 34.7585C177.758 34.7571 177.888 34.7206 178.002 34.6527L183.537 31.4489C183.713 31.3487 183.841 31.1827 183.894 30.9875C183.948 30.7923 183.922 30.5839 183.822 30.408C183.722 30.2322 183.557 30.1033 183.362 30.0498C183.167 29.9963 182.96 30.0226 182.784 30.1228L177.245 33.3304C177.157 33.3794 177.079 33.4458 177.016 33.5257C176.954 33.6056 176.908 33.6973 176.882 33.7953C176.855 33.8933 176.849 33.9957 176.863 34.0963C176.877 34.1968 176.911 34.2936 176.963 34.3807Z" fill="#F8CB76"/>
<path d="M173.589 29.4881C173.689 29.4886 173.788 29.4692 173.881 29.431C173.973 29.3927 174.057 29.3363 174.128 29.2652L178.646 24.7315C178.717 24.6608 178.773 24.5768 178.812 24.4842C178.851 24.3916 178.871 24.2923 178.871 24.192C178.871 24.0917 178.852 23.9922 178.814 23.8994C178.776 23.8066 178.72 23.7222 178.65 23.651C178.579 23.5798 178.496 23.5232 178.403 23.4845C178.311 23.4457 178.212 23.4256 178.112 23.4253C178.012 23.4249 177.913 23.4444 177.821 23.4824C177.728 23.5205 177.644 23.5765 177.573 23.6472L173.054 28.1809C172.944 28.2861 172.868 28.4224 172.836 28.5719C172.805 28.7214 172.819 28.8771 172.877 29.0183C172.935 29.1595 173.035 29.2796 173.163 29.3628C173.291 29.446 173.441 29.4884 173.593 29.4843L173.589 29.4881Z" fill="#F8CB76"/>
<path d="M167.952 25.3398C168.067 25.4052 168.197 25.4403 168.329 25.4418C168.463 25.4436 168.595 25.4096 168.711 25.3432C168.828 25.2768 168.924 25.1804 168.991 25.064L172.188 19.4913C172.288 19.316 172.315 19.108 172.262 18.9131C172.209 18.7183 172.081 18.5525 171.906 18.4523C171.731 18.3521 171.524 18.3257 171.33 18.3788C171.135 18.432 170.97 18.5604 170.87 18.7357L167.674 24.2894C167.621 24.3763 167.587 24.4728 167.573 24.5732C167.559 24.6737 167.565 24.7759 167.591 24.8739C167.617 24.9719 167.662 25.0637 167.724 25.1437C167.786 25.2237 167.864 25.2904 167.952 25.3398Z" fill="#F8CB76"/>
<path d="M162.014 22.8916C162.078 22.9078 162.144 22.9167 162.21 22.918C162.381 22.9232 162.55 22.8695 162.686 22.7658C162.823 22.662 162.921 22.5145 162.963 22.3475L164.601 16.1326C164.626 16.0356 164.631 15.9347 164.617 15.8356C164.603 15.7365 164.569 15.6411 164.518 15.555C164.468 15.4689 164.4 15.3937 164.32 15.3336C164.241 15.2736 164.15 15.2299 164.053 15.2051C163.956 15.1803 163.856 15.1748 163.757 15.189C163.658 15.2032 163.563 15.2368 163.477 15.2879C163.392 15.3389 163.317 15.4064 163.257 15.4865C163.197 15.5667 163.153 15.6578 163.129 15.7548L161.476 21.9508C161.448 22.0481 161.44 22.15 161.452 22.2504C161.464 22.3508 161.496 22.4478 161.546 22.5355C161.597 22.6233 161.664 22.7 161.744 22.7611C161.825 22.8223 161.916 22.8667 162.014 22.8916Z" fill="#F8CB76"/>
<path d="M171.518 62.6675C180.286 53.8696 180.286 39.6053 171.518 30.8073C162.749 22.0094 148.532 22.0094 139.764 30.8073C130.995 39.6053 130.995 53.8696 139.764 62.6675C148.532 71.4655 162.749 71.4655 171.518 62.6675Z" fill="#F8CB76"/>
<path d="M301.548 196.524C301.548 186.825 234.146 178.963 151 178.963C67.8545 178.963 0.452435 186.825 0.452435 196.524C0.452435 201.02 14.9533 205.123 38.7888 208.236C34.8425 209.989 32.7 211.863 32.7 213.808C32.7 223.507 85.6652 231.369 151 231.369C216.335 231.369 269.3 223.507 269.3 213.801C269.3 211.855 267.157 209.981 263.211 208.228C287.047 205.123 301.548 201.02 301.548 196.524Z" fill="#47BA75"/>
<path d="M301.548 192.458C301.548 182.756 234.146 174.898 151 174.898C67.8545 174.898 0.452435 182.756 0.452435 192.458C0.452435 196.954 14.9533 201.054 38.7888 204.17C34.8425 205.92 32.7 207.794 32.7 209.743C32.7 219.441 85.6652 227.304 151 227.304C216.335 227.304 269.3 219.441 269.3 209.743C269.3 207.794 267.157 205.92 263.211 204.17C287.047 201.054 301.548 196.954 301.548 192.458Z" fill="#6BC891"/>
<path d="M301.548 192.458C301.548 182.756 234.146 174.898 151 174.898C67.8545 174.898 0.452435 182.756 0.452435 192.458C0.452435 196.954 14.9533 201.054 38.7888 204.17C34.8425 205.92 32.7 207.794 32.7 209.743C32.7 219.441 85.6652 227.304 151 227.304C216.335 227.304 269.3 219.441 269.3 209.743C269.3 207.794 267.157 205.92 263.211 204.17C287.047 201.054 301.548 196.954 301.548 192.458ZM246.764 201.798C250.126 203.286 251.949 204.885 251.949 206.547C251.96 214.817 206.827 221.504 151.166 221.504C95.5044 221.504 50.3789 214.817 50.3789 206.547C50.3789 204.885 52.2014 203.286 55.564 201.798C35.2567 199.153 22.906 195.655 22.906 191.824C22.906 183.561 80.3295 176.863 151.166 176.863C222.002 176.863 279.425 183.561 279.425 191.824C279.425 195.655 267.071 199.149 246.764 201.798Z" fill="#8AD2A9"/>
<path d="M227.228 202.04C227.228 206.245 186.595 209.652 136.48 209.652C86.3656 209.652 45.7323 206.252 45.7323 202.04C45.7323 197.827 86.343 194.416 136.469 194.416C186.595 194.416 227.228 197.838 227.228 202.04Z" fill="#80C465"/>
<path d="M126.867 58.2127C126.867 58.2127 121.742 49.3985 109.501 51.5822C97.2591 53.7659 100.52 67.9525 93.7459 74.6283C86.9718 81.3042 81.0675 87.2395 83.9745 96.662C86.8815 106.084 71.443 108.098 71.4882 122.323C71.5334 136.547 74.8319 144.923 93.8099 146.056C112.788 147.19 143.16 142.131 147.28 136.392C151.399 130.653 150.703 118.053 140.378 101.978C130.053 85.9021 139.485 84.4589 132.587 75.1535C125.688 65.8481 130.538 62.0436 126.867 58.2127Z" fill="#6BC891"/>
<path d="M57.1982 176.791H53.5946L54.3703 49.9425H56.1966L57.1982 176.791Z" fill="#FF4910"/>
<path d="M55.0594 50.4865L28.863 72.9962L18.6811 81.7424L17.913 80.9604L26.9275 70.9296L41.6919 54.4988L53.3649 48.367L55.0594 50.4865Z" fill="#FF4910"/>
<path d="M28.863 72.9962L18.6811 81.7424L17.913 80.9604L26.9275 70.9296L28.863 72.9962Z" fill="#D03B10"/>
<path d="M56.8367 48.9715L54.2799 49.882L41.4397 17.028L36.7968 5.1498L37.7834 4.67754L44.0152 16.0457L54.8937 35.8994L56.8367 48.9715Z" fill="#FF4910"/>
<path d="M44.0152 16.0457L41.4397 17.028L36.7968 5.1498L37.7834 4.67754L44.0152 16.0457Z" fill="#D03B10"/>
<path d="M103.156 50.751L67.7302 53.2067L55.0858 49.4853L55.3343 46.7765L85.2811 48.5748L103.141 49.6516L103.156 50.751Z" fill="#FF4910"/>
<path d="M103.156 50.751L85.4506 51.9789L85.2811 48.5748L103.141 49.6516L103.156 50.751Z" fill="#D03B10"/>
<path d="M55.2251 46.4327C54.7612 46.4051 54.2996 46.5162 53.8986 46.7518C53.4976 46.9874 53.1753 47.3371 52.9724 47.7565C52.7694 48.1759 52.695 48.6463 52.7585 49.1082C52.822 49.57 53.0206 50.0027 53.3291 50.3513C53.6376 50.7 54.0423 50.949 54.4918 51.0669C54.9414 51.1848 55.4157 51.1664 55.8548 51.0138C56.294 50.8613 56.6781 50.5815 56.9588 50.2099C57.2395 49.8383 57.404 49.3916 57.4316 48.9262C57.45 48.6171 57.4074 48.3074 57.3065 48.0148C57.2055 47.7221 57.0481 47.4524 56.8432 47.2208C56.6383 46.9892 56.3899 46.8005 56.1123 46.6652C55.8346 46.53 55.5331 46.451 55.2251 46.4327Z" fill="#8C0101"/>
<path d="M163.37 97.6367H89.8072V201.125H163.37V97.6367Z" fill="#FFA158"/>
<path d="M220.522 100.391V201.118H163.366V97.6254H218.033C218.888 98.5359 219.72 99.4502 220.522 100.391Z" fill="#FFB36F"/>
<path d="M177.607 63.8344L171.8 75.8411L169.229 81.1304L169.15 81.3457L169.04 81.5346L168.961 81.6971L168.83 81.9653L168.773 82.0976L166.231 87.3377L166.096 87.606L165.776 88.3049L161.257 97.6254L160.21 99.8016L158.738 102.824L157.962 104.433H84.7427L89.7997 97.8559L89.9616 97.6405L122.891 54.8766L122.917 54.8502H125.816L170.468 54.6915C172.041 57.7102 174.53 60.7742 177.607 63.8344Z" fill="#CC3127"/>
<path d="M163.37 103.931V112.537L89.8072 115.658V104.433H87.627L125.805 54.8237L163.37 103.931Z" fill="#FFA158"/>
<path d="M123.855 79.536H127.496C129.648 79.538 131.712 80.3976 133.233 81.9258C134.754 83.454 135.608 85.5256 135.607 87.6853V113.149H115.465V87.9573C115.465 85.7239 116.349 83.5819 117.924 82.0026C119.498 80.4233 121.632 79.536 123.858 79.536H123.855Z" fill="#E06C49"/>
<path d="M227.228 107.188H162.014L158.723 102.809L124.295 56.7694L122.876 54.8615L122.714 54.6499H187.928L188.09 54.8615L189.51 56.7694L223.937 102.809L227.228 107.188Z" fill="#E06C49"/>
<path d="M117.822 118.337L100.663 153.783H48.5301L75.7093 118.469L117.822 118.337Z" fill="#CC3127"/>
<path d="M119.385 118.337L102.226 153.783H50.0927L77.2719 118.469L119.385 118.337Z" fill="#FFA158"/>
<path d="M102.113 153.783V201.027L50.0927 201.129V153.783H102.113Z" fill="#FFA158"/>
<path d="M146.161 153.783H102.113V201.027L146.161 201.027V153.783Z" fill="#FFB36F"/>
<path d="M151 155.879H103.679L75.7093 118.465L89.8072 118.469L122.217 118.477L151 155.879Z" fill="#E06C49"/>
<path d="M73.2504 138.145C73.2504 137.657 73.3946 137.18 73.6648 136.774C73.935 136.369 74.319 136.053 74.7683 135.866C75.2176 135.679 75.712 135.63 76.189 135.725C76.6659 135.821 77.1041 136.056 77.4479 136.401C77.7918 136.746 78.026 137.185 78.1209 137.664C78.2158 138.142 78.1671 138.638 77.981 139.089C77.7948 139.54 77.4797 139.925 77.0753 140.196C76.671 140.467 76.1956 140.612 75.7093 140.612C75.0571 140.612 74.4317 140.352 73.9706 139.89C73.5095 139.427 73.2504 138.799 73.2504 138.145Z" fill="#E06C49"/>
<path d="M151 155.879L142.019 155.879L89.8072 118.469L122.217 118.477L151 155.879Z" fill="white"/>
<path d="M174.527 99.0875H210.329L191.441 75.8486H155.639L174.527 99.0875Z" fill="#A93127"/>
<path d="M160.515 81.9691H196.318L196.095 81.6971H160.293L160.515 81.9691Z" fill="#D75E3F"/>
<path d="M183.025 75.8486L201.913 99.0875H202.184L183.3 75.8486H183.025Z" fill="#D75E3F"/>
<path d="M173.54 75.8486L192.428 99.0875H192.699L173.815 75.8486H173.54Z" fill="#D75E3F"/>
<path d="M164.413 75.8486L183.3 99.0875H183.571L164.688 75.8486H164.413Z" fill="#D75E3F"/>
<path d="M165.196 87.606H200.998L200.776 87.334H164.974L165.196 87.606Z" fill="#D75E3F"/>
<path d="M170.136 93.6849H205.935L205.712 93.4129H169.914L170.136 93.6849Z" fill="#D75E3F"/>
<path d="M188.986 82.9741L189.193 81.852L187.167 80.7337L186.96 81.852L188.986 82.9741Z" fill="#D75E3F"/>
<path d="M179.603 82.9741L179.81 81.852L177.784 80.7337L177.577 81.852L179.603 82.9741Z" fill="#D75E3F"/>
<path d="M170.339 82.9741L170.543 81.852L168.521 80.7337L168.314 81.852L170.339 82.9741Z" fill="#D75E3F"/>
<path d="M193.55 88.5883L193.757 87.47L191.731 86.3517L191.524 87.47L193.55 88.5883Z" fill="#D75E3F"/>
<path d="M184.166 88.5883L184.373 87.47L182.348 86.3517L182.14 87.47L184.166 88.5883Z" fill="#D75E3F"/>
<path d="M174.903 88.5883L175.107 87.47L173.085 86.3517L172.877 87.47L174.903 88.5883Z" fill="#D75E3F"/>
<path d="M198.49 94.6672L198.697 93.5489L196.671 92.4305L196.464 93.5489L198.49 94.6672Z" fill="#D75E3F"/>
<path d="M189.107 94.6672L189.314 93.5489L187.288 92.4305L187.081 93.5489L189.107 94.6672Z" fill="#D75E3F"/>
<path d="M179.844 94.6672L180.047 93.5489L178.025 92.4305L177.818 93.5489L179.844 94.6672Z" fill="#D75E3F"/>
<path d="M106.948 148.675H139.391L122.277 127.616H89.8374L106.948 148.675Z" fill="#A93127"/>
<path d="M94.2542 133.162H126.694L126.494 132.916H94.0547L94.2542 133.162Z" fill="#D75E3F"/>
<path d="M114.652 127.616L131.766 148.675H132.011L114.897 127.616H114.652Z" fill="#D75E3F"/>
<path d="M106.055 127.616L123.169 148.675H123.418L106.304 127.616H106.055Z" fill="#D75E3F"/>
<path d="M97.7863 127.616L114.897 148.675H115.145L98.031 127.616H97.7863Z" fill="#D75E3F"/>
<path d="M98.4942 138.27H130.934L130.734 138.02H98.2908L98.4942 138.27Z" fill="#D75E3F"/>
<path d="M102.968 143.778H135.411L135.208 143.529H102.768L102.968 143.778Z" fill="#D75E3F"/>
<path d="M120.052 134.072L120.236 133.056L118.402 132.044L118.214 133.056L120.052 134.072Z" fill="#D75E3F"/>
<path d="M111.549 134.072L111.734 133.056L109.9 132.044L109.712 133.056L111.549 134.072Z" fill="#D75E3F"/>
<path d="M103.156 134.072L103.34 133.056L101.507 132.044L101.318 133.056L103.156 134.072Z" fill="#D75E3F"/>
<path d="M124.186 139.161L124.374 138.145L122.537 137.133L122.352 138.145L124.186 139.161Z" fill="#D75E3F"/>
<path d="M115.684 139.161L115.872 138.145L114.034 137.133L113.85 138.145L115.684 139.161Z" fill="#D75E3F"/>
<path d="M107.29 139.161L107.479 138.145L105.641 137.133L105.457 138.145L107.29 139.161Z" fill="#D75E3F"/>
<path d="M128.663 144.666L128.848 143.654L127.014 142.641L126.829 143.654L128.663 144.666Z" fill="#D75E3F"/>
<path d="M120.161 144.666L120.345 143.654L118.511 142.641L118.327 143.654L120.161 144.666Z" fill="#D75E3F"/>
<path d="M111.767 144.666L111.952 143.654L110.118 142.641L109.93 143.654L111.767 144.666Z" fill="#D75E3F"/>
<path d="M236.766 120.743C236.766 120.743 234.017 130.234 237.915 145.282C237.915 145.282 239.948 154.379 239.948 156.93C239.948 156.93 240.37 161.085 241.221 163.73C241.221 163.73 241.56 176.912 249.505 190.853C249.505 190.853 252.724 191.703 254.08 190.173C254.08 190.173 253.233 168.324 250.604 155.486L246.688 124.521C246.688 124.521 240.713 123.528 236.766 120.743Z" fill="#2A365E"/>
<path d="M236.766 120.743C236.766 120.743 234.017 130.234 237.915 145.282C237.915 145.282 239.948 154.379 239.948 156.93C239.948 156.93 240.37 161.085 241.221 163.73C241.221 163.73 241.56 176.912 249.505 190.853C249.505 190.853 252.724 191.703 254.08 190.173C254.08 190.173 253.233 168.324 250.604 155.486L246.688 124.521C246.688 124.521 240.713 123.528 236.766 120.743Z" fill="black"/>
<path d="M259.201 122.44C259.201 122.44 262.865 127.351 259.201 136.864L250.71 157.867C250.71 157.867 245.54 186.006 241.899 192.625C241.899 192.625 239.184 194.408 237.068 192.625C237.068 192.625 238.167 169.669 240.539 159.552C240.539 159.552 244.61 134.896 245.201 131.069L246.647 124.106C246.647 124.106 253.628 126.033 259.201 122.44Z" fill="#2A365E"/>
<path d="M232.956 109.364C232.956 109.364 235.968 112.628 237.068 110.845L232.956 109.364Z" fill="#FE4810"/>
<path d="M261.042 94.875V118.579C261.042 118.579 261.129 121.446 258.813 122.678C258.813 122.678 252.001 127.461 240.287 122.678C240.287 122.678 234.733 121.053 235.652 117.483C235.652 117.483 236.781 111.744 237.783 107.917V94.943C237.759 92.5826 238.587 90.2932 240.114 88.4976C240.208 88.388 240.306 88.2822 240.404 88.1802L247.234 84.4022L251.998 82.7058L259.905 85.785L261.042 94.875Z" fill="#FE4810"/>
<path d="M247.234 84.3871V85.4638C247.234 85.4638 247.05 86.9486 248.451 87.1564C248.451 87.1564 254.099 87.6777 252.924 84.4475C252.924 84.4475 252.57 83.5899 252.069 82.5585C252.069 82.5623 250.077 85.2296 247.234 84.3871Z" fill="#FEA054"/>
<path d="M247.234 84.3871L247.234 85.2749C247.234 85.2749 251.47 84.9387 251.93 82.4716C251.93 82.4716 250.39 84.4513 247.234 84.3871Z" fill="#FE7142"/>
<path d="M248.451 84.5873C251.356 84.5873 253.711 81.3396 253.711 77.3334C253.711 73.3272 251.356 70.0795 248.451 70.0795C245.545 70.0795 243.19 73.3272 243.19 77.3334C243.19 81.3396 245.545 84.5873 248.451 84.5873Z" fill="#FEA054"/>
<path d="M256.102 95.6495C256.102 95.6495 254.867 95.5286 254.938 98.2941C254.952 98.655 254.989 99.0146 255.048 99.3709C255.247 100.701 255.673 104.974 252.849 105.234C252.849 105.234 256.565 105.612 255.899 101.555C255.884 101.57 255.119 97.1758 256.102 95.6495Z" fill="black"/>
<path d="M251.888 111.729C251.888 111.729 257.16 113.365 261.042 112.757C261.042 112.757 257.808 114.827 251.888 111.729Z" fill="black"/>
<path d="M241.695 95.521C241.857 95.6876 241.98 95.8875 242.057 96.1067C242.133 96.3259 242.162 96.5592 242.14 96.7904C242.14 96.7904 242.226 96.322 244.433 96.1519C244.433 96.1519 247.023 95.9706 252.834 96.7904C252.521 95.9763 251.95 95.2878 251.209 94.8311C250.468 94.3744 249.598 94.1747 248.733 94.2629C248.733 94.2629 244.659 93.9909 241.695 95.521Z" fill="white"/>
<path d="M239.18 96.1255L238.924 111.729C238.924 111.729 238.668 112.379 240.099 112.583C240.099 112.583 242.14 113.142 242.14 112.171V96.1255C242.14 96.1255 242.14 96.9416 240.66 96.9982C240.664 96.9982 239.282 96.9982 239.18 96.1255Z" fill="#3A020E"/>
<path d="M239.18 96.1255C239.18 96.1255 231.626 91.6145 230.749 93.6131C230.749 93.6131 229.371 108.378 231.363 108.839C231.363 108.839 237.764 110.875 238.924 111.729L239.18 96.1255Z" fill="#4D010E"/>
<path d="M240.664 95.2528C240.664 95.2528 234.639 86.2837 230.753 93.6131C230.753 93.6131 231.261 92.7026 232.956 93.2768C235.143 93.9607 237.235 94.9177 239.184 96.1255C239.184 96.1255 239.308 95.2528 240.664 95.2528Z" fill="white"/>
<path d="M237.651 193.033C237.651 193.033 234.808 196.116 232.971 197.276C232.971 197.276 231.54 198.507 233.174 199.225C233.174 199.225 234.334 199.882 236.751 198.435C236.947 198.318 237.128 198.201 237.346 198.099C238.498 197.517 242.863 195.114 241.906 192.64C241.899 192.64 239.7 194.117 237.651 193.033Z" fill="#FEA054"/>
<path d="M232.963 197.276C232.963 197.276 227.65 200.079 229.386 201.651C229.386 201.651 230.452 203.12 234.07 201.851C234.91 201.554 235.704 201.142 236.431 200.627C237.982 199.511 239.595 198.485 241.262 197.555C241.67 197.354 242.013 197.044 242.255 196.658C242.496 196.272 242.626 195.827 242.629 195.371C242.601 194.685 242.396 194.017 242.034 193.433C242.034 193.433 242.166 195.568 237.538 198.001C237.357 198.099 237.083 198.201 236.902 198.311C236.171 198.753 233.92 199.996 232.681 198.927C232.681 198.927 231.931 198.337 232.963 197.276Z" fill="#FE4810"/>
<path d="M253.504 193.074C253.504 193.074 253.504 193.074 253.481 193.101C252.148 195.024 249.524 196.441 249.524 196.441C247.046 198.235 245.871 197.619 245.871 197.619C244.305 196.981 245.559 195.772 245.664 195.677C249.497 192.436 249.52 190.898 249.52 190.86C252.969 191.733 254.095 190.18 254.095 190.18C254.096 190.19 254.096 190.2 254.095 190.211C254.116 190.27 254.134 190.33 254.148 190.392C254.389 191.329 254.065 192.247 253.504 193.074Z" fill="#FEA054"/>
<path d="M254.099 195.311C252.713 196.184 248.948 199.153 248.948 199.153C245.182 202.13 242.629 200.54 242.629 200.54C240.084 199.172 245.525 195.757 245.664 195.677C245.559 195.772 244.305 196.981 245.871 197.619C245.871 197.619 247.046 198.235 249.524 196.441C249.524 196.441 252.16 195.024 253.481 193.101C253.481 193.101 253.504 193.101 253.504 193.074C253.826 192.715 254.054 192.281 254.168 191.812C254.283 191.343 254.28 190.852 254.159 190.384C254.147 190.322 254.129 190.262 254.106 190.203C254.107 190.193 254.107 190.183 254.106 190.173C256.4 194.366 254.099 195.311 254.099 195.311Z" fill="#FE4810"/>
<path d="M240.66 96.9982C241.477 96.9982 242.14 96.6075 242.14 96.1255C242.14 95.6435 241.477 95.2528 240.66 95.2528C239.842 95.2528 239.18 95.6435 239.18 96.1255C239.18 96.6075 239.842 96.9982 240.66 96.9982Z" fill="white"/>
<path d="M242.14 96.7904L242.14 112.171L253.331 111.729C253.331 111.729 254.739 98.1279 252.834 96.7904C252.834 96.7904 243.111 95.2528 242.14 96.7904Z" fill="#4D010E"/>
<path d="M247.788 106.387C247.788 106.387 245.645 105.684 245.103 105.733C245.103 105.733 243.921 105.318 242.844 105.027C242.844 105.027 241.665 104.792 242.704 105.88C242.704 105.88 244.527 106.674 243.891 107.146C243.891 107.146 242.787 107.497 240.792 107.089C240.565 107.043 240.329 107.071 240.118 107.168C239.908 107.265 239.733 107.427 239.621 107.63C239.331 108.162 239.27 108.956 240.528 109.779C240.528 109.779 242.569 111.31 248.002 109.402C247.987 109.409 247.385 107.709 247.788 106.387Z" fill="#FEA054"/>
<path d="M247.863 105.71C247.863 105.71 246.688 105.352 246.79 106.787C246.79 106.787 246.063 110.425 248.319 110.527C248.319 110.527 259.766 115.193 264.111 111.453C264.111 111.453 271.42 104.49 266.412 91.8072C266.281 91.4738 266.07 91.1777 265.798 90.9452C265.526 90.7126 265.202 90.5507 264.853 90.4735C262.616 89.9862 257.725 89.6688 256.087 95.6532C256.087 95.6532 255.27 96.56 255.884 101.573C255.884 101.573 256.637 105.457 252.834 105.253L247.863 105.71Z" fill="#FE4810"/>
<path d="M264.601 86.4121C264.601 86.4121 263.241 85.2598 264.363 84.1453C264.363 84.1453 266.555 80.5561 264.258 77.7906C264.258 77.7906 260.892 75.4331 260.432 72.0479C260.432 72.0479 259.461 64.0006 250.265 66.1541C250.265 66.1541 242.091 64.5636 240.814 73.7405C240.353 74.8675 239.656 75.8817 238.769 76.7138C238.769 76.7138 236.42 79.0184 238.973 81.9427C238.973 81.9427 240.814 83.6012 239.726 84.9651C239.726 84.9651 238.596 87.2886 240.389 88.2105C240.389 88.2105 244.086 90.9269 247.219 85.494V84.4173C247.219 84.4173 244.03 83.6617 243.258 78.6255C243.258 78.6255 242.847 76.0187 243.864 73.7707C243.864 73.7707 244.809 72.524 245.984 72.422C246.653 72.2628 247.254 71.8951 247.701 71.3717C247.706 71.3642 247.714 71.3587 247.722 71.3559C247.731 71.3531 247.74 71.3532 247.749 71.3562C247.757 71.3592 247.765 71.3649 247.77 71.3725C247.775 71.38 247.777 71.389 247.776 71.3981C247.72 71.9459 247.776 73.8123 250.811 74.4205C250.811 74.4205 254.08 74.8815 252.547 78.0097C252.134 78.7133 251.87 79.4951 251.773 80.306C251.676 81.1168 251.747 81.9391 251.983 82.7209C251.983 82.7209 253.865 85.8983 252.397 87.2093C252.397 87.2093 247.901 89.9522 250.657 93.2844C250.657 93.2844 252.89 96.0726 257.932 95.6344C259.484 95.493 260.987 95.012 262.334 94.2251C263.394 93.64 264.343 92.8727 265.139 91.9583C265.778 91.1478 266.077 90.1197 265.974 89.0916C265.871 88.0636 265.373 87.1162 264.586 86.4499L264.555 86.4234" fill="black"/>
<path d="M66.5554 38.3552C66.5554 38.3552 68.6151 34.7773 73.5366 35.174C73.5366 35.174 80.691 29.2085 88.2972 34.3769C88.2972 34.3769 96.393 33.0961 102.391 35.4876C106.39 37.082 107.708 38.7519 107.708 38.7519L66.5554 38.3552Z" fill="#F6FBFF"/>
<path d="M101.653 45.099C101.653 45.099 102.647 42.9531 105.042 43.1911C105.042 43.1911 108.495 39.617 112.178 42.7151C112.178 42.7151 116.094 41.9594 118.993 43.38C120.925 44.3358 121.565 45.337 121.565 45.337L101.653 45.099Z" fill="#F6FBFF"/>
</svg>
